<?xml version="1.0" encoding="UTF-8" standalone="no"?>
<svg
   xmlns:dc="http://purl.org/dc/elements/1.1/"
   xmlns:cc="http://creativecommons.org/ns#"
   xmlns:rdf="http://www.w3.org/1999/02/22-rdf-syntax-ns#"
   xmlns:svg="http://www.w3.org/2000/svg"
   xmlns="http://www.w3.org/2000/svg"
   xmlns:sodipodi="http://sodipodi.sourceforge.net/DTD/sodipodi-0.dtd"
   xmlns:inkscape="http://www.inkscape.org/namespaces/inkscape"
   version="1.0"
   x="0px"
   y="0px"
   width="96px"
   height="96px"
   viewBox="0 0 96 96"
   enable-background="new 0 0 96 96"
   xml:space="preserve"
   id="svg3897"
   inkscape:version="0.48.4 r9939"
   sodipodi:docname="content_remove.svg"><metadata
     id="metadata3906"><rdf:RDF><cc:Work
         rdf:about=""><dc:format>image/svg+xml</dc:format><dc:type
           rdf:resource="http://purl.org/dc/dcmitype/StillImage" /><dc:title></dc:title></cc:Work></rdf:RDF></metadata><defs
     id="defs3904" /><sodipodi:namedview
     pagecolor="#ffffff"
     bordercolor="#666666"
     borderopacity="1"
     objecttolerance="10"
     gridtolerance="10"
     guidetolerance="10"
     inkscape:pageopacity="0"
     inkscape:pageshadow="2"
     inkscape:window-width="1920"
     inkscape:window-height="1023"
     id="namedview3902"
     showgrid="false"
     inkscape:zoom="8.7916667"
     inkscape:cx="34.578199"
     inkscape:cy="48"
     inkscape:window-x="0"
     inkscape:window-y="33"
     inkscape:window-maximized="1"
     inkscape:current-layer="svg3897" /><g
     id="_x35__content_remove"
     transform="matrix(0.36041724,0,0,0.36041724,25.865849,2.0364653)"><polygon
       display="inline"
       clip-rule="evenodd"
       points="25.288,21.146 21.146,25.288 43.856,48 21.146,70.712 25.288,74.854 48.001,52.144 70.712,74.854 74.854,70.712 52.145,48 74.854,25.288 70.712,21.146 48.001,43.856 "
       id="polygon3900"
       style="fill:#333333;fill-rule:evenodd;display:inline" /></g><g
     transform="matrix(0.36041724,0,0,0.36041724,25.865849,44.349262)"
     id="g3908"><polygon
       style="fill:#333333;fill-rule:evenodd;display:inline"
       id="polygon3910"
       points="21.146,25.288 43.856,48 21.146,70.712 25.288,74.854 48.001,52.144 70.712,74.854 74.854,70.712 52.145,48 74.854,25.288 70.712,21.146 48.001,43.856 25.288,21.146 "
       clip-rule="evenodd"
       display="inline" /></g></svg>