<?xml version="1.0" encoding="UTF-8" standalone="no"?>
<!-- Created with Inkscape (http://www.inkscape.org/) -->

<svg
   xmlns:dc="http://purl.org/dc/elements/1.1/"
   xmlns:cc="http://creativecommons.org/ns#"
   xmlns:rdf="http://www.w3.org/1999/02/22-rdf-syntax-ns#"
   xmlns:svg="http://www.w3.org/2000/svg"
   xmlns="http://www.w3.org/2000/svg"
   xmlns:sodipodi="http://sodipodi.sourceforge.net/DTD/sodipodi-0.dtd"
   xmlns:inkscape="http://www.inkscape.org/namespaces/inkscape"
   sodipodi:docname="button-normal.svg"
   inkscape:version="0.48.4 r9939"
   version="1.1"
   id="svg2"
   height="192"
   width="208"
   inkscape:export-xdpi="33.75"
   inkscape:export-ydpi="33.75">
  <sodipodi:namedview
     id="base"
     pagecolor="#ffffff"
     bordercolor="#666666"
     borderopacity="1.0"
     inkscape:pageopacity="0.0"
     inkscape:pageshadow="2"
     inkscape:zoom="2.2712306"
     inkscape:cx="22.748084"
     inkscape:cy="68.439364"
     inkscape:document-units="px"
     inkscape:current-layer="svg2"
     showgrid="false"
     inkscape:window-width="1855"
     inkscape:window-height="1056"
     inkscape:window-x="65"
     inkscape:window-y="24"
     inkscape:window-maximized="1"
     inkscape:snap-bbox="true">
    <inkscape:grid
       spacingy="8px"
       spacingx="8px"
       snapvisiblegridlinesonly="true"
       enabled="true"
       visible="true"
       empspacing="2"
       id="grid2996"
       type="xygrid" />
  </sodipodi:namedview>
  <defs
     id="defs4">
    <clipPath
       id="clipPath">
      <path
         inkscape:connector-curvature="0"
         id="rect2998"
         d="m 40,892.36218 128,0 c 4.432,0 8,3.568 8,8 l 0,112.00002 c 0,4.432 -3.568,8 -8,8 l -128,0 c -4.432,0 -8,-3.568 -8,-8 l 0,-112.00002 c 0,-4.432 3.568,-8 8,-8 z"
         style="fill:#bdbdbd;fill-opacity:1;stroke:none" />
    </clipPath>
    <filter
       y="-0.5"
       x="-0.5"
       width="5.0"
       height="5.0"
       id="filter">
      <feGaussianBlur
         id="feGaussianBlur4381"
         stdDeviation="1.0" />
    </filter>
  </defs>
  <metadata
     id="metadata7">
    <rdf:RDF>
      <cc:Work
         rdf:about="">
        <dc:format>image/svg+xml</dc:format>
        <dc:type
           rdf:resource="http://purl.org/dc/dcmitype/StillImage" />
        <dc:title></dc:title>
      </cc:Work>
    </rdf:RDF>
  </metadata>
  <g
     transform="translate(0,-860.36218)"
     id="layer1"
     inkscape:groupmode="layer"
     inkscape:label="Layer 1">
    <path
       inkscape:connector-curvature="0"
       id="path4387"
       d="m 40,892.36218 128,0 c 4.432,0 8,3.568 8,8 l 0,112.00002 c 0,4.432 -3.568,8 -8,8 l -128,0 c -4.432,0 -8,-3.568 -8,-8 l 0,-112.00002 c 0,-4.432 3.568,-8 8,-8 z"
       style="fill:#bdbdbd;fill-opacity:1;stroke:none" />
    <g
       id="g4389"
       clip-path="url(#clipPath)"
       transform="translate(0,-2e-5)">
      <g
         id="g4391">
        <path
           inkscape:connector-curvature="0"
           id="path4393"
           d="m 40,892.36218 128,0 m 0,0 c 4.432,0 8,3.568 8,8 m -144,0 c 0,-4.432 3.568,-8 8,-8"
           style="fill:none;stroke:#ffffff;stroke-width:10;stroke-opacity:1;filter:url(#filter)" />
        <path
           inkscape:connector-curvature="0"
           id="path4395"
           d="m 176,900.36218 0,112.00002 m -144,0 0,-112.00002"
           style="fill:none;stroke:#808080;stroke-width:10;stroke-opacity:1;filter:url(#filter)" />
        <path
           inkscape:connector-curvature="0"
           id="path4397"
           d="m 176,1012.3622 c 0,4.432 -3.568,8 -8,8 m 0,0 -128,0 m 0,0 c -4.432,0 -8,-3.568 -8,-8"
           style="fill:none;stroke:#000000;stroke-width:10;stroke-opacity:1;filter:url(#filter)" />
      </g>
    </g>
  </g>
  <rect
     style="fill:#bdbdbd;fill-opacity:0.75294119;stroke:none"
     id="rect4551"
     width="144"
     height="128"
     x="32"
     y="32"
     ry="8" />
</svg>
