<?xml version="1.0" encoding="UTF-8" standalone="no"?>
<svg
   xmlns:dc="http://purl.org/dc/elements/1.1/"
   xmlns:cc="http://creativecommons.org/ns#"
   xmlns:rdf="http://www.w3.org/1999/02/22-rdf-syntax-ns#"
   xmlns:svg="http://www.w3.org/2000/svg"
   xmlns="http://www.w3.org/2000/svg"
   xmlns:sodipodi="http://sodipodi.sourceforge.net/DTD/sodipodi-0.dtd"
   xmlns:inkscape="http://www.inkscape.org/namespaces/inkscape"
   version="1.0"
   x="0px"
   y="0px"
   width="96px"
   height="96px"
   viewBox="0 0 96 96"
   enable-background="new 0 0 96 96"
   xml:space="preserve"
   id="svg3145"
   inkscape:version="0.48.4 r9939"
   sodipodi:docname="rotate_90.svg"><metadata
     id="metadata3158"><rdf:RDF><cc:Work
         rdf:about=""><dc:format>image/svg+xml</dc:format><dc:type
           rdf:resource="http://purl.org/dc/dcmitype/StillImage" /><dc:title></dc:title></cc:Work></rdf:RDF></metadata><defs
     id="defs3156" /><sodipodi:namedview
     pagecolor="#ffffff"
     bordercolor="#666666"
     borderopacity="1"
     objecttolerance="10"
     gridtolerance="10"
     guidetolerance="10"
     inkscape:pageopacity="0"
     inkscape:pageshadow="2"
     inkscape:window-width="1920"
     inkscape:window-height="1023"
     id="namedview3154"
     showgrid="true"
     inkscape:zoom="11.313709"
     inkscape:cx="44.261193"
     inkscape:cy="55.69986"
     inkscape:window-x="0"
     inkscape:window-y="33"
     inkscape:window-maximized="1"
     inkscape:current-layer="svg3145"><inkscape:grid
       type="xygrid"
       id="grid3167" /></sodipodi:namedview><g
     id="g3234"><path
       style="fill:#333333"
       inkscape:connector-curvature="0"
       id="path3150"
       d="m 52.740432,44.338061 c -2.353622,-2.789797 -6.528186,-3.144519 -9.324097,-0.785739 -2.791325,2.354912 -3.144639,6.529595 -0.791017,9.319392 2.356202,2.792853 6.530121,3.146812 9.321446,0.7919 2.795911,-2.35878 3.149869,-6.5327 0.793668,-9.325553 z" /><path
       id="path3152"
       d="M 47.6875 15.84375 C 43.280718 15.79222 38.966666 16.617998 34.90625 18.28125 C 31.018759 19.87188 27.47549 22.302985 24.46875 25.15625 C 21.407427 28.151074 19.023284 31.619452 17.34375 35.5 C 15.873089 38.858931 15.056554 42.545556 14.78125 46.21875 L 14.71875 46.21875 L 6.84375 46.1875 L 19.28125 63.3125 L 31.875 46.3125 L 24.0625 46.28125 L 24.03125 46.28125 C 24.287751 43.984592 24.851394 41.471891 25.78125 39.34375 C 26.969184 36.615845 28.721148 34.075959 30.84375 32 C 33.132876 29.851586 35.665405 28.146247 38.375 27.03125 C 41.26139 25.848218 44.3139 25.276305 47.46875 25.3125 C 50.619373 25.34834 53.66826 25.998097 56.53125 27.25 C 59.292137 28.450666 61.759228 30.148911 63.875 32.3125 C 64.295646 32.741315 64.689144 33.151204 65.0625 33.59375 C 66.640394 35.46406 67.926894 37.578137 68.84375 39.8125 C 69.97122 42.578516 70.545029 45.487753 70.5625 48.5 L 80.03125 48.5 C 80.025398 44.233003 79.209336 40.085618 77.59375 36.15625 C 76.300937 33.007917 74.543258 30.075872 72.34375 27.46875 C 71.822729 26.851174 71.28575 26.264978 70.71875 25.6875 C 67.746854 22.648701 64.278198 20.259755 60.40625 18.5625 C 56.388922 16.813885 52.105389 15.889832 47.6875 15.84375 z "
       style="fill:#333333" /></g></svg>