<?xml version="1.0" encoding="UTF-8" standalone="no"?>
<!-- Created with Inkscape (http://www.inkscape.org/) -->

<svg
   xmlns:dc="http://purl.org/dc/elements/1.1/"
   xmlns:cc="http://creativecommons.org/ns#"
   xmlns:rdf="http://www.w3.org/1999/02/22-rdf-syntax-ns#"
   xmlns:svg="http://www.w3.org/2000/svg"
   xmlns="http://www.w3.org/2000/svg"
   xmlns:sodipodi="http://sodipodi.sourceforge.net/DTD/sodipodi-0.dtd"
   xmlns:inkscape="http://www.inkscape.org/namespaces/inkscape"
   inkscape:version="0.48.4 r9939"
   version="1.1"
   id="svg2"
   height="800"
   width="800"
   sodipodi:docname="square_corner_123.svg">
  <sodipodi:namedview
     id="base"
     pagecolor="#ffffff"
     bordercolor="#666666"
     borderopacity="1.0"
     inkscape:pageopacity="0.0"
     inkscape:pageshadow="2"
     inkscape:zoom="1.979899"
     inkscape:cx="347.12053"
     inkscape:cy="599.78722"
     inkscape:document-units="px"
     inkscape:current-layer="layer1"
     showgrid="true"
     inkscape:window-width="1920"
     inkscape:window-height="1023"
     inkscape:window-x="0"
     inkscape:window-y="33"
     inkscape:window-maximized="1">
    <inkscape:grid
       snapvisiblegridlinesonly="true"
       enabled="true"
       visible="true"
       empspacing="5"
       id="grid4152"
       type="xygrid" />
  </sodipodi:namedview>
  <defs
     id="defs4" />
  <metadata
     id="metadata7">
    <rdf:RDF>
      <cc:Work
         rdf:about="">
        <dc:format>image/svg+xml</dc:format>
        <dc:type
           rdf:resource="http://purl.org/dc/dcmitype/StillImage" />
        <dc:title></dc:title>
      </cc:Work>
    </rdf:RDF>
  </metadata>
  <g
     transform="translate(0,-252.36218)"
     id="layer1"
     inkscape:groupmode="layer"
     inkscape:label="Layer 1">
    <path
       transform="translate(0,252.36218)"
       style="fill:none;stroke:#000000;stroke-width:20;stroke-miterlimit:4;stroke-opacity:1"
       d="m 100,100 400,0 0,400 -400,0 z"
       id="rect3786" />
    <path
       style="fill:#000000;fill-opacity:1;stroke:#000000;stroke-width:0;stroke-linecap:square;stroke-linejoin:round;stroke-miterlimit:4;stroke-opacity:1;stroke-dashoffset:0"
       d="M 100 100 L 100 320.71875 L 320 100 L 100 100 z M 188.875 111.5 C 189.31374 111.48115 189.77034 111.50001 190.21875 111.5 C 193.96058 111.50007 197.21709 111.94701 200.03125 112.84375 C 202.87627 113.70971 205.27014 114.95515 207.1875 116.625 C 209.10477 118.29499 210.5413 120.36952 211.5 122.8125 C 212.48954 125.22466 212.9687 127.97011 212.96875 131.0625 C 212.9687 133.41281 212.61714 135.67908 211.875 137.84375 C 211.13276 139.97757 210.04781 142.11625 208.65625 144.25 C 207.26461 146.38383 205.57255 148.55472 203.5625 150.78125 C 201.55238 153.00784 199.2861 155.37014 196.78125 157.875 L 188.0625 167.9375 L 214.65625 167.9375 L 214.65625 180 L 167.53125 180 L 167.53125 169.78125 L 189.21875 146.96875 C 192.0947 143.69079 194.16924 140.88188 195.40625 138.5625 C 196.6432 136.21229 197.24997 134.20056 197.25 132.46875 C 197.24997 129.5619 196.61162 127.32785 195.34375 125.8125 C 194.07581 124.29725 192.25583 123.56255 189.84375 123.5625 C 188.63767 123.56255 187.52081 123.81841 186.53125 124.375 C 185.54164 124.90077 184.71124 125.63514 184 126.59375 C 183.31964 127.55246 182.777 128.70122 182.375 130 C 182.00389 131.26795 181.81249 132.641 181.8125 134.15625 L 166.125 134.15625 C 166.125 131.06386 166.69954 128.15859 167.84375 125.40625 C 169.01888 122.65403 170.64713 120.22825 172.75 118.15625 C 174.88378 116.08437 177.43716 114.45645 180.375 113.28125 C 182.97264 112.22601 185.8038 111.63196 188.875 111.5 z M 143.625 112.46875 L 145.0625 112.46875 L 145.0625 180 L 129.375 180 L 129.375 130.09375 L 114 134.59375 L 114 122.71875 L 143.625 112.46875 z M 134.3125 190.25 C 137.89971 190.25007 141.18747 190.66511 144.15625 191.5 C 147.12496 192.33503 149.64709 193.54857 151.75 195.1875 C 153.88374 196.79563 155.54357 198.8067 156.71875 201.21875 C 157.89383 203.59999 158.4687 206.37701 158.46875 209.53125 C 158.4687 211.07753 158.21349 212.57752 157.71875 214 C 157.22391 215.42257 156.55302 216.76339 155.65625 218.03125 C 154.7594 219.26827 153.64253 220.38578 152.34375 221.40625 C 151.04488 222.4268 149.60836 223.32034 148.03125 224.0625 C 151.61845 225.36136 154.42768 227.34052 156.46875 230 C 158.50971 232.6286 159.5312 235.88479 159.53125 239.78125 C 159.5312 242.93557 158.89252 245.7448 157.59375 248.21875 C 156.32579 250.69271 154.56994 252.76791 152.3125 254.46875 C 150.05497 256.1696 147.37366 257.47819 144.28125 258.375 C 141.21969 259.24088 137.89971 259.6875 134.3125 259.6875 C 132.42609 259.6875 130.51104 259.49642 128.59375 259.15625 C 126.70734 258.81608 124.88768 258.30534 123.125 257.625 C 121.3623 256.94466 119.70246 256.08268 118.15625 255.03125 C 116.61001 253.94889 115.2692 252.70346 114.125 251.25 C 113.01172 249.76564 112.11784 248.07423 111.4375 246.21875 C 110.78808 244.36329 110.46875 242.2881 110.46875 239.96875 L 126.1875 239.96875 C 126.18748 241.05113 126.41111 242.04103 126.875 242.96875 C 127.33885 243.8965 127.97687 244.72626 128.75 245.4375 C 129.55401 246.11786 130.4798 246.66049 131.53125 247.0625 C 132.58266 247.4336 133.69985 247.62501 134.875 247.625 C 136.2975 247.62501 137.54293 247.40203 138.65625 247 C 139.80042 246.56707 140.75811 245.9922 141.53125 245.25 C 142.30433 244.50782 142.91044 243.64585 143.3125 242.65625 C 143.71448 241.66668 143.90622 240.61297 143.90625 239.46875 C 143.90622 236.06708 143.07582 233.6413 141.375 232.21875 C 139.67413 230.79625 137.31215 230.09378 134.3125 230.09375 L 126.6875 230.09375 L 126.6875 218.4375 L 134.3125 218.4375 C 137.21938 218.43754 139.35836 217.6716 140.75 216.15625 C 142.14157 214.61007 142.84372 212.5033 142.84375 209.84375 C 142.84372 208.82329 142.68388 207.86562 142.34375 206.96875 C 142.03447 206.04107 141.55563 205.24289 140.90625 204.5625 C 140.2568 203.85129 139.42673 203.30833 138.40625 202.90625 C 137.41664 202.50429 136.23565 202.31255 134.875 202.3125 C 133.91632 202.31255 132.95896 202.44081 132.03125 202.75 C 131.13442 203.02838 130.30466 203.44342 129.5625 204 C 128.85121 204.52577 128.27635 205.19569 127.8125 205.96875 C 127.37954 206.74191 127.15623 207.60422 127.15625 208.59375 L 111.53125 208.59375 C 111.53125 205.71783 112.13802 203.1638 113.375 200.90625 C 114.61198 198.6179 116.30338 196.67096 118.40625 195.09375 C 120.5091 193.51667 122.90363 192.33503 125.625 191.5 C 128.37726 190.66511 131.28188 190.25007 134.3125 190.25 z "
       transform="translate(0,252.36218)"
       id="rect3901" />
  </g>
</svg>
