<?xml version="1.0" encoding="UTF-8" standalone="no"?>
<!-- Created with Inkscape (http://www.inkscape.org/) -->

<svg
   xmlns:dc="http://purl.org/dc/elements/1.1/"
   xmlns:cc="http://creativecommons.org/ns#"
   xmlns:rdf="http://www.w3.org/1999/02/22-rdf-syntax-ns#"
   xmlns:svg="http://www.w3.org/2000/svg"
   xmlns="http://www.w3.org/2000/svg"
   xmlns:sodipodi="http://sodipodi.sourceforge.net/DTD/sodipodi-0.dtd"
   xmlns:inkscape="http://www.inkscape.org/namespaces/inkscape"
   width="448"
   height="448"
   id="svg2"
   version="1.1"
   inkscape:version="0.48.4 r9939"
   sodipodi:docname="unequal_sym_key_h.svg">
  <defs
     id="defs4" />
  <sodipodi:namedview
     id="base"
     pagecolor="#ffffff"
     bordercolor="#666666"
     borderopacity="1.0"
     inkscape:pageopacity="0.0"
     inkscape:pageshadow="2"
     inkscape:zoom="0.98994949"
     inkscape:cx="277.40025"
     inkscape:cy="257.39428"
     inkscape:document-units="px"
     inkscape:current-layer="layer1"
     showgrid="true"
     inkscape:snap-bbox="true"
     fit-margin-top="0"
     fit-margin-left="0"
     fit-margin-right="0"
     fit-margin-bottom="0"
     inkscape:window-width="1920"
     inkscape:window-height="1023"
     inkscape:window-x="0"
     inkscape:window-y="33"
     inkscape:window-maximized="1">
    <inkscape:grid
       type="xygrid"
       id="grid2985"
       empspacing="4"
       visible="true"
       enabled="true"
       snapvisiblegridlinesonly="true"
       spacingx="32px"
       spacingy="32px"
       originx="-512.00003px"
       originy="-447.99998px" />
  </sodipodi:namedview>
  <metadata
     id="metadata7">
    <rdf:RDF>
      <cc:Work
         rdf:about="">
        <dc:format>image/svg+xml</dc:format>
        <dc:type
           rdf:resource="http://purl.org/dc/dcmitype/StillImage" />
        <dc:title></dc:title>
      </cc:Work>
    </rdf:RDF>
  </metadata>
  <g
     inkscape:label="Layer 1"
     inkscape:groupmode="layer"
     id="layer1"
     transform="translate(-278.22453,-308.3345)">
    <g
       id="g3717"
       transform="matrix(0.35555555,0,0,0.35555555,360.14034,382.43444)">
      <path
         inkscape:connector-curvature="0"
         d="m 463.58263,844.47905 c 4.6531,16.88673 -5.65243,34.24419 -23.01806,38.76898 -17.36564,4.52478 -35.21535,-5.49656 -39.86846,-22.38328 l 31.44326,-8.19285 z M 215.34178,188.18994 c -4.65311,-16.88672 5.65243,-34.24419 23.01807,-38.76898 17.36563,-4.52478 35.21534,5.49656 39.86845,22.38328 l -31.44325,8.19285 z m 0,0 62.88652,-16.3857 185.35433,672.67479 -62.88652,16.3857 z"
         style="fill:#000000;fill-opacity:1;stroke:none"
         id="path2989-3" />
      <path
         sodipodi:nodetypes="ccccc"
         inkscape:connector-curvature="0"
         id="rect3022"
         d="m 309.67157,163.61139 448.00047,16.37784 32.55246,221.58315 -404.72617,37.22415 z"
         style="fill:#000000;fill-opacity:1;stroke:none" />
    </g>
    <g
       id="g3713"
       transform="matrix(1.0666667,0,0,1.0666667,-524.1483,156.51103)">
      <path
         id="rect3786"
         d="m 762.2245,152.3345 400,0 0,400 -400,0 z"
         style="fill:none;stroke:#000000;stroke-width:20;stroke-miterlimit:4;stroke-opacity:1"
         inkscape:connector-curvature="0" />
      <path
         id="rect3901"
         d="m 762.2245,152.3345 0,220.71875 220,-220.71875 -220,0 z m 88.875,11.5 c 0.43874,-0.0189 0.89534,1e-5 1.34375,0 3.74183,7e-5 6.99834,0.44701 9.8125,1.34375 2.84502,0.86596 5.23889,2.1114 7.15625,3.78125 1.91727,1.66999 3.3538,3.74452 4.3125,6.1875 0.98954,2.41216 1.4687,5.15761 1.46875,8.25 -5e-5,2.35031 -0.35161,4.61658 -1.09375,6.78125 -0.74224,2.13382 -1.82719,4.2725 -3.21875,6.40625 -1.39164,2.13383 -3.0837,4.30472 -5.09375,6.53125 -2.01012,2.22659 -4.2764,4.58889 -6.78125,7.09375 l -8.71875,10.0625 26.59375,0 0,12.0625 -47.125,0 0,-10.21875 21.6875,-22.8125 c 2.87595,-3.27796 4.95049,-6.08687 6.1875,-8.40625 1.23695,-2.35021 1.84372,-4.36194 1.84375,-6.09375 -3e-5,-2.90685 -0.63838,-5.1409 -1.90625,-6.65625 -1.26794,-1.51525 -3.08792,-2.24995 -5.5,-2.25 -1.20608,5e-5 -2.32294,0.25591 -3.3125,0.8125 -0.98961,0.52577 -1.82001,1.26014 -2.53125,2.21875 -0.68036,0.95871 -1.223,2.10747 -1.625,3.40625 -0.37111,1.26795 -0.56251,2.641 -0.5625,4.15625 l -15.6875,0 c 0,-3.09239 0.57454,-5.99766 1.71875,-8.75 1.17513,-2.75222 2.80338,-5.178 4.90625,-7.25 2.13378,-2.07188 4.68716,-3.6998 7.625,-4.875 2.59764,-1.05524 5.4288,-1.64929 8.5,-1.78125 z m -45.25,0.96875 1.4375,0 0,67.53125 -15.6875,0 0,-49.90625 -15.375,4.5 0,-11.875 29.625,-10.25 z m -9.3125,77.78125 c 3.58721,7e-5 6.87497,0.41511 9.84375,1.25 2.96871,0.83503 5.49084,2.04857 7.59375,3.6875 2.13374,1.60813 3.79357,3.6192 4.96875,6.03125 1.17508,2.38124 1.74995,5.15826 1.75,8.3125 -5e-5,1.54628 -0.25526,3.04627 -0.75,4.46875 -0.49484,1.42257 -1.16573,2.76339 -2.0625,4.03125 -0.89685,1.23702 -2.01372,2.35453 -3.3125,3.375 -1.29887,1.02055 -2.73539,1.91409 -4.3125,2.65625 3.5872,1.29886 6.39643,3.27802 8.4375,5.9375 2.04096,2.6286 3.06245,5.88479 3.0625,9.78125 -5e-5,3.15432 -0.63873,5.96355 -1.9375,8.4375 -1.26796,2.47396 -3.02381,4.54916 -5.28125,6.25 -2.25753,1.70085 -4.93884,3.00944 -8.03125,3.90625 -3.06156,0.86588 -6.38154,1.3125 -9.96875,1.3125 -1.88641,0 -3.80146,-0.19108 -5.71875,-0.53125 -1.88641,-0.34017 -3.70607,-0.85091 -5.46875,-1.53125 -1.7627,-0.68034 -3.42254,-1.54232 -4.96875,-2.59375 -1.54624,-1.08236 -2.88705,-2.32779 -4.03125,-3.78125 -1.11328,-1.48436 -2.00716,-3.17577 -2.6875,-5.03125 -0.64942,-1.85546 -0.96875,-3.93065 -0.96875,-6.25 l 15.71875,0 c -2e-5,1.08238 0.22361,2.07228 0.6875,3 0.46385,0.92775 1.10187,1.75751 1.875,2.46875 0.80401,0.68036 1.7298,1.22299 2.78125,1.625 1.05141,0.3711 2.1686,0.56251 3.34375,0.5625 1.4225,1e-5 2.66793,-0.22297 3.78125,-0.625 1.14417,-0.43293 2.10186,-1.0078 2.875,-1.75 0.77308,-0.74218 1.37919,-1.60415 1.78125,-2.59375 0.40198,-0.98957 0.59372,-2.04328 0.59375,-3.1875 -3e-5,-3.40167 -0.83043,-5.82745 -2.53125,-7.25 -1.70087,-1.4225 -4.06285,-2.12497 -7.0625,-2.125 l -7.625,0 0,-11.65625 7.625,0 c 2.90688,4e-5 5.04586,-0.7659 6.4375,-2.28125 1.39157,-1.54618 2.09372,-3.65295 2.09375,-6.3125 -3e-5,-1.02046 -0.15987,-1.97813 -0.5,-2.875 -0.30928,-0.92768 -0.78812,-1.72586 -1.4375,-2.40625 -0.64945,-0.71121 -1.47952,-1.25417 -2.5,-1.65625 -0.98961,-0.40196 -2.1706,-0.5937 -3.53125,-0.59375 -0.95868,5e-5 -1.91604,0.12831 -2.84375,0.4375 -0.89683,0.27838 -1.72659,0.69342 -2.46875,1.25 -0.71129,0.52577 -1.28615,1.19569 -1.75,1.96875 -0.43296,0.77316 -0.65627,1.63547 -0.65625,2.625 l -15.625,0 c 0,-2.87592 0.60677,-5.42995 1.84375,-7.6875 1.23698,-2.28835 2.92838,-4.23529 5.03125,-5.8125 2.10285,-1.57708 4.49738,-2.75872 7.21875,-3.59375 2.75226,-0.83489 5.65688,-1.24993 8.6875,-1.25 z"
         style="fill:#000000;fill-opacity:1;stroke:#000000;stroke-width:0;stroke-linecap:square;stroke-linejoin:round;stroke-miterlimit:4;stroke-opacity:1;stroke-dashoffset:0"
         inkscape:connector-curvature="0" />
    </g>
  </g>
</svg>
