<?xml version="1.0" encoding="UTF-8" standalone="no"?>
<svg xmlns="http://www.w3.org/2000/svg" version="1.1" width="762" height="792">
<path style="fill: none; stroke: black; stroke-width: 4.000000; stroke-linejoin: round; stroke-linecap: round; " d="M 454.000000 367.730652
L 424.000000 315.769104
L 394.000000 333.089630
L 394.000000 367.730652
L 394.000000 402.371643
L 424.000000 419.692139
L 394.000000 471.653687
L 424.000000 523.615234
L 454.000000 506.294708
L 454.000000 471.653687
L 514.000000 471.653687
L 544.000000 419.692139
L 514.000000 402.371643
L 514.000000 367.730652
z" />
<path style="fill: none; stroke: rgba(0,0,0,0.2); stroke-width: 2.000000; stroke-linejoin: round; stroke-linecap: round; " d="M 454.000000 367.730652 L 394.000000 367.730652" />
<path style="fill: none; stroke: rgba(0,0,0,0.2); stroke-width: 2.000000; stroke-linejoin: round; stroke-linecap: round; " d="M 454.000000 367.730652 L 424.000000 419.692139" />
<path style="fill: none; stroke: rgba(0,0,0,0.2); stroke-width: 2.000000; stroke-linejoin: round; stroke-linecap: round; " d="M 394.000000 471.653687 L 454.000000 471.653687" />
<path style="fill: none; stroke: rgba(0,0,0,0.2); stroke-width: 2.000000; stroke-linejoin: round; stroke-linecap: round; " d="M 454.000000 367.730652 L 514.000000 471.653687" />
<path style="fill: none; stroke: rgba(0,0,0,0.2); stroke-width: 2.000000; stroke-linejoin: round; stroke-linecap: round; " d="M 454.000000 471.653687 L 454.000000 437.012665" />
<path style="fill: none; stroke: rgba(0,0,0,0.2); stroke-width: 2.000000; stroke-linejoin: round; stroke-linecap: round; " d="M 424.000000 419.692139 L 454.000000 437.012665" />
<path style="fill: none; stroke: rgba(0,0,0,0.2); stroke-width: 2.000000; stroke-linejoin: round; stroke-linecap: round; " d="M 514.000000 402.371643 L 454.000000 437.012665" />
<text style="fill: black; font-family: Sans; font-size: 10px; text-anchor: middle; text-align: center; " x="424" y="491.974">0.0.0</text>
<text style="fill: black; font-family: Sans; font-size: 10px; text-anchor: middle; text-align: center; " x="424" y="457.333">1.0.0</text>
<text style="fill: black; font-family: Sans; font-size: 10px; text-anchor: middle; text-align: center; " x="484" y="457.333">2.0.0</text>
<text style="fill: black; font-family: Sans; font-size: 10px; text-anchor: middle; text-align: center; " x="514" y="440.013">3.0.0</text>
<text style="fill: black; font-family: Sans; font-size: 10px; text-anchor: middle; text-align: center; " x="484" y="388.051">4.0.0</text>
<text style="fill: black; font-family: Sans; font-size: 10px; text-anchor: middle; text-align: center; " x="454" y="405.372">5.0.0</text>
<text style="fill: black; font-family: Sans; font-size: 10px; text-anchor: middle; text-align: center; " x="424" y="388.051">6.0.0</text>
<text style="fill: black; font-family: Sans; font-size: 10px; text-anchor: middle; text-align: center; " x="424" y="353.41">7.0.0</text>
<path style="fill: none; stroke: black; stroke-width: 4.000000; stroke-linejoin: round; stroke-linecap: round; " d="M 334.000000 367.730652
L 394.000000 367.730652
L 394.000000 333.089630
L 364.000000 315.769104
L 334.000000 298.448578
L 304.000000 315.769104
L 274.000000 263.807587
L 214.000000 263.807587
L 214.000000 298.448578
L 244.000000 315.769104
L 214.000000 367.730652
L 244.000000 419.692139
L 274.000000 402.371643
L 304.000000 419.692139
z" />
<path style="fill: none; stroke: rgba(0,0,0,0.2); stroke-width: 2.000000; stroke-linejoin: round; stroke-linecap: round; " d="M 334.000000 367.730652 L 364.000000 315.769104" />
<path style="fill: none; stroke: rgba(0,0,0,0.2); stroke-width: 2.000000; stroke-linejoin: round; stroke-linecap: round; " d="M 334.000000 367.730652 L 304.000000 315.769104" />
<path style="fill: none; stroke: rgba(0,0,0,0.2); stroke-width: 2.000000; stroke-linejoin: round; stroke-linecap: round; " d="M 274.000000 263.807587 L 244.000000 315.769104" />
<path style="fill: none; stroke: rgba(0,0,0,0.2); stroke-width: 2.000000; stroke-linejoin: round; stroke-linecap: round; " d="M 334.000000 367.730652 L 214.000000 367.730652" />
<path style="fill: none; stroke: rgba(0,0,0,0.2); stroke-width: 2.000000; stroke-linejoin: round; stroke-linecap: round; " d="M 244.000000 315.769104 L 274.000000 333.089630" />
<path style="fill: none; stroke: rgba(0,0,0,0.2); stroke-width: 2.000000; stroke-linejoin: round; stroke-linecap: round; " d="M 304.000000 315.769104 L 274.000000 333.089630" />
<path style="fill: none; stroke: rgba(0,0,0,0.2); stroke-width: 2.000000; stroke-linejoin: round; stroke-linecap: round; " d="M 274.000000 402.371643 L 274.000000 333.089630" />
<text style="fill: black; font-family: Sans; font-size: 10px; text-anchor: middle; text-align: center; " x="244" y="284.128">0.1.0</text>
<text style="fill: black; font-family: Sans; font-size: 10px; text-anchor: middle; text-align: center; " x="274" y="301.449">1.1.0</text>
<text style="fill: black; font-family: Sans; font-size: 10px; text-anchor: middle; text-align: center; " x="244" y="353.41">2.1.0</text>
<text style="fill: black; font-family: Sans; font-size: 10px; text-anchor: middle; text-align: center; " x="244" y="388.051">3.1.0</text>
<text style="fill: black; font-family: Sans; font-size: 10px; text-anchor: middle; text-align: center; " x="304" y="388.051">4.1.0</text>
<text style="fill: black; font-family: Sans; font-size: 10px; text-anchor: middle; text-align: center; " x="304" y="353.41">5.1.0</text>
<text style="fill: black; font-family: Sans; font-size: 10px; text-anchor: middle; text-align: center; " x="334" y="336.09">6.1.0</text>
<text style="fill: black; font-family: Sans; font-size: 10px; text-anchor: middle; text-align: center; " x="364" y="353.41">7.1.0</text>
<path style="fill: none; stroke: black; stroke-width: 4.000000; stroke-linejoin: round; stroke-linecap: round; " d="M 274.000000 471.653687
L 244.000000 419.692139
L 214.000000 437.012695
L 214.000000 471.653687
L 214.000000 506.294708
L 244.000000 523.615234
L 214.000000 575.576721
L 244.000000 627.538269
L 274.000000 610.217773
L 274.000000 575.576721
L 334.000000 575.576721
L 364.000000 523.615234
L 334.000000 506.294708
L 334.000000 471.653687
z" />
<path style="fill: none; stroke: rgba(0,0,0,0.2); stroke-width: 2.000000; stroke-linejoin: round; stroke-linecap: round; " d="M 274.000000 471.653687 L 214.000000 471.653687" />
<path style="fill: none; stroke: rgba(0,0,0,0.2); stroke-width: 2.000000; stroke-linejoin: round; stroke-linecap: round; " d="M 274.000000 471.653687 L 244.000000 523.615234" />
<path style="fill: none; stroke: rgba(0,0,0,0.2); stroke-width: 2.000000; stroke-linejoin: round; stroke-linecap: round; " d="M 214.000000 575.576721 L 274.000000 575.576721" />
<path style="fill: none; stroke: rgba(0,0,0,0.2); stroke-width: 2.000000; stroke-linejoin: round; stroke-linecap: round; " d="M 274.000000 471.653687 L 334.000000 575.576721" />
<path style="fill: none; stroke: rgba(0,0,0,0.2); stroke-width: 2.000000; stroke-linejoin: round; stroke-linecap: round; " d="M 274.000000 575.576721 L 274.000000 540.935730" />
<path style="fill: none; stroke: rgba(0,0,0,0.2); stroke-width: 2.000000; stroke-linejoin: round; stroke-linecap: round; " d="M 244.000000 523.615234 L 274.000000 540.935730" />
<path style="fill: none; stroke: rgba(0,0,0,0.2); stroke-width: 2.000000; stroke-linejoin: round; stroke-linecap: round; " d="M 334.000000 506.294708 L 274.000000 540.935730" />
<text style="fill: black; font-family: Sans; font-size: 10px; text-anchor: middle; text-align: center; " x="244" y="595.897">0.2.0</text>
<text style="fill: black; font-family: Sans; font-size: 10px; text-anchor: middle; text-align: center; " x="244" y="561.256">1.2.0</text>
<text style="fill: black; font-family: Sans; font-size: 10px; text-anchor: middle; text-align: center; " x="304" y="561.256">2.2.0</text>
<text style="fill: black; font-family: Sans; font-size: 10px; text-anchor: middle; text-align: center; " x="334" y="543.936">3.2.0</text>
<text style="fill: black; font-family: Sans; font-size: 10px; text-anchor: middle; text-align: center; " x="304" y="491.974">4.2.0</text>
<text style="fill: black; font-family: Sans; font-size: 10px; text-anchor: middle; text-align: center; " x="274" y="509.295">5.2.0</text>
<text style="fill: black; font-family: Sans; font-size: 10px; text-anchor: middle; text-align: center; " x="244" y="491.974">6.2.0</text>
<text style="fill: black; font-family: Sans; font-size: 10px; text-anchor: middle; text-align: center; " x="244" y="457.333">7.2.0</text>
<path style="fill: rgba(0,0,0,0.2); stroke: black; stroke-width: 4.000000; stroke-linejoin: round; stroke-linecap: round; " d="M 424.000000 419.692139
L 394.000000 402.371643
L 394.000000 367.730652
L 334.000000 367.730652
L 304.000000 419.692139
L 274.000000 402.371643
L 244.000000 419.692139
L 274.000000 471.653687
L 334.000000 471.653687
L 334.000000 506.294708
L 364.000000 523.615234
L 394.000000 540.935730
L 424.000000 523.615234
L 394.000000 471.653687
z" />
<path style="fill: none; stroke: rgba(0,0,0,0.2); stroke-width: 2.000000; stroke-linejoin: round; stroke-linecap: round; " d="M 394.000000 471.653687 L 364.000000 523.615234" />
<path style="fill: none; stroke: rgba(0,0,0,0.2); stroke-width: 2.000000; stroke-linejoin: round; stroke-linecap: round; " d="M 394.000000 471.653687 L 334.000000 471.653687" />
<path style="fill: none; stroke: rgba(0,0,0,0.2); stroke-width: 2.000000; stroke-linejoin: round; stroke-linecap: round; " d="M 274.000000 471.653687 L 304.000000 419.692139" />
<path style="fill: none; stroke: rgba(0,0,0,0.2); stroke-width: 2.000000; stroke-linejoin: round; stroke-linecap: round; " d="M 394.000000 471.653687 L 334.000000 367.730652" />
<path style="fill: none; stroke: rgba(0,0,0,0.2); stroke-width: 2.000000; stroke-linejoin: round; stroke-linecap: round; " d="M 304.000000 419.692139 L 334.000000 437.012665" />
<path style="fill: none; stroke: rgba(0,0,0,0.2); stroke-width: 2.000000; stroke-linejoin: round; stroke-linecap: round; " d="M 334.000000 471.653687 L 334.000000 437.012665" />
<path style="fill: none; stroke: rgba(0,0,0,0.2); stroke-width: 2.000000; stroke-linejoin: round; stroke-linecap: round; " d="M 394.000000 402.371643 L 334.000000 437.012665" />
<text style="fill: black; font-family: Sans; font-size: 10px; text-anchor: middle; text-align: center; " x="274" y="440.013">0.3.0</text>
<text style="fill: black; font-family: Sans; font-size: 10px; text-anchor: middle; text-align: center; " x="304" y="457.333">1.3.0</text>
<text style="fill: black; font-family: Sans; font-size: 10px; text-anchor: middle; text-align: center; " x="334" y="405.372">2.3.0</text>
<text style="fill: black; font-family: Sans; font-size: 10px; text-anchor: middle; text-align: center; " x="364" y="388.051">3.3.0</text>
<text style="fill: black; font-family: Sans; font-size: 10px; text-anchor: middle; text-align: center; " x="394" y="440.013">4.3.0</text>
<text style="fill: black; font-family: Sans; font-size: 10px; text-anchor: middle; text-align: center; " x="364" y="457.333">5.3.0</text>
<text style="fill: black; font-family: Sans; font-size: 10px; text-anchor: middle; text-align: center; " x="364" y="491.974">6.3.0</text>
<text style="fill: black; font-family: Sans; font-size: 10px; text-anchor: middle; text-align: center; " x="394" y="509.295">7.3.0</text>
<path style="fill: none; stroke: black; stroke-width: 4.000000; stroke-linejoin: round; stroke-linecap: round; " d="M 154.000000 471.653687
L 124.000000 419.692139
L 94.000000 437.012695
L 94.000000 471.653687
L 94.000000 506.294708
L 124.000000 523.615234
L 94.000000 575.576721
L 124.000000 627.538269
L 154.000000 610.217773
L 154.000000 575.576721
L 214.000000 575.576721
L 244.000000 523.615234
L 214.000000 506.294708
L 214.000000 471.653687
z" />
<path style="fill: none; stroke: rgba(0,0,0,0.2); stroke-width: 2.000000; stroke-linejoin: round; stroke-linecap: round; " d="M 154.000000 471.653687 L 94.000000 471.653687" />
<path style="fill: none; stroke: rgba(0,0,0,0.2); stroke-width: 2.000000; stroke-linejoin: round; stroke-linecap: round; " d="M 154.000000 471.653687 L 124.000000 523.615234" />
<path style="fill: none; stroke: rgba(0,0,0,0.2); stroke-width: 2.000000; stroke-linejoin: round; stroke-linecap: round; " d="M 94.000000 575.576721 L 154.000000 575.576721" />
<path style="fill: none; stroke: rgba(0,0,0,0.2); stroke-width: 2.000000; stroke-linejoin: round; stroke-linecap: round; " d="M 154.000000 471.653687 L 214.000000 575.576721" />
<path style="fill: none; stroke: rgba(0,0,0,0.2); stroke-width: 2.000000; stroke-linejoin: round; stroke-linecap: round; " d="M 154.000000 575.576721 L 154.000000 540.935730" />
<path style="fill: none; stroke: rgba(0,0,0,0.2); stroke-width: 2.000000; stroke-linejoin: round; stroke-linecap: round; " d="M 124.000000 523.615234 L 154.000000 540.935730" />
<path style="fill: none; stroke: rgba(0,0,0,0.2); stroke-width: 2.000000; stroke-linejoin: round; stroke-linecap: round; " d="M 214.000000 506.294708 L 154.000000 540.935730" />
<text style="fill: black; font-family: Sans; font-size: 10px; text-anchor: middle; text-align: center; " x="124" y="595.897">0.0.1</text>
<text style="fill: black; font-family: Sans; font-size: 10px; text-anchor: middle; text-align: center; " x="124" y="561.256">1.0.1</text>
<text style="fill: black; font-family: Sans; font-size: 10px; text-anchor: middle; text-align: center; " x="184" y="561.256">2.0.1</text>
<text style="fill: black; font-family: Sans; font-size: 10px; text-anchor: middle; text-align: center; " x="214" y="543.936">3.0.1</text>
<text style="fill: black; font-family: Sans; font-size: 10px; text-anchor: middle; text-align: center; " x="184" y="491.974">4.0.1</text>
<text style="fill: black; font-family: Sans; font-size: 10px; text-anchor: middle; text-align: center; " x="154" y="509.295">5.0.1</text>
<text style="fill: black; font-family: Sans; font-size: 10px; text-anchor: middle; text-align: center; " x="124" y="491.974">6.0.1</text>
<text style="fill: black; font-family: Sans; font-size: 10px; text-anchor: middle; text-align: center; " x="124" y="457.333">7.0.1</text>
<path style="fill: none; stroke: black; stroke-width: 4.000000; stroke-linejoin: round; stroke-linecap: round; " d="M 214.000000 367.730652
L 244.000000 315.769104
L 214.000000 298.448578
L 184.000000 315.769104
L 154.000000 333.089630
L 154.000000 367.730652
L 94.000000 367.730652
L 64.000000 419.692139
L 94.000000 437.012695
L 124.000000 419.692139
L 154.000000 471.653687
L 214.000000 471.653687
L 214.000000 437.012695
L 244.000000 419.692139
z" />
<path style="fill: none; stroke: rgba(0,0,0,0.2); stroke-width: 2.000000; stroke-linejoin: round; stroke-linecap: round; " d="M 214.000000 367.730652 L 184.000000 315.769104" />
<path style="fill: none; stroke: rgba(0,0,0,0.2); stroke-width: 2.000000; stroke-linejoin: round; stroke-linecap: round; " d="M 214.000000 367.730652 L 154.000000 367.730652" />
<path style="fill: none; stroke: rgba(0,0,0,0.2); stroke-width: 2.000000; stroke-linejoin: round; stroke-linecap: round; " d="M 94.000000 367.730652 L 124.000000 419.692139" />
<path style="fill: none; stroke: rgba(0,0,0,0.2); stroke-width: 2.000000; stroke-linejoin: round; stroke-linecap: round; " d="M 214.000000 367.730652 L 154.000000 471.653687" />
<path style="fill: none; stroke: rgba(0,0,0,0.2); stroke-width: 2.000000; stroke-linejoin: round; stroke-linecap: round; " d="M 124.000000 419.692139 L 154.000000 402.371643" />
<path style="fill: none; stroke: rgba(0,0,0,0.2); stroke-width: 2.000000; stroke-linejoin: round; stroke-linecap: round; " d="M 154.000000 367.730652 L 154.000000 402.371643" />
<path style="fill: none; stroke: rgba(0,0,0,0.2); stroke-width: 2.000000; stroke-linejoin: round; stroke-linecap: round; " d="M 214.000000 437.012695 L 154.000000 402.371643" />
<text style="fill: black; font-family: Sans; font-size: 10px; text-anchor: middle; text-align: center; " x="94" y="405.372">0.1.1</text>
<text style="fill: black; font-family: Sans; font-size: 10px; text-anchor: middle; text-align: center; " x="124" y="388.051">1.1.1</text>
<text style="fill: black; font-family: Sans; font-size: 10px; text-anchor: middle; text-align: center; " x="154" y="440.013">2.1.1</text>
<text style="fill: black; font-family: Sans; font-size: 10px; text-anchor: middle; text-align: center; " x="184" y="457.333">3.1.1</text>
<text style="fill: black; font-family: Sans; font-size: 10px; text-anchor: middle; text-align: center; " x="214" y="405.372">4.1.1</text>
<text style="fill: black; font-family: Sans; font-size: 10px; text-anchor: middle; text-align: center; " x="184" y="388.051">5.1.1</text>
<text style="fill: black; font-family: Sans; font-size: 10px; text-anchor: middle; text-align: center; " x="184" y="353.41">6.1.1</text>
<text style="fill: black; font-family: Sans; font-size: 10px; text-anchor: middle; text-align: center; " x="214" y="336.09">7.1.1</text>
<path style="fill: none; stroke: black; stroke-width: 4.000000; stroke-linejoin: round; stroke-linecap: round; " d="M 394.000000 263.807587
L 334.000000 263.807587
L 334.000000 298.448578
L 364.000000 315.769104
L 394.000000 333.089630
L 424.000000 315.769104
L 454.000000 367.730652
L 514.000000 367.730652
L 514.000000 333.089630
L 484.000000 315.769104
L 514.000000 263.807587
L 484.000000 211.846069
L 454.000000 229.166595
L 424.000000 211.846069
z" />
<path style="fill: none; stroke: rgba(0,0,0,0.2); stroke-width: 2.000000; stroke-linejoin: round; stroke-linecap: round; " d="M 394.000000 263.807587 L 364.000000 315.769104" />
<path style="fill: none; stroke: rgba(0,0,0,0.2); stroke-width: 2.000000; stroke-linejoin: round; stroke-linecap: round; " d="M 394.000000 263.807587 L 424.000000 315.769104" />
<path style="fill: none; stroke: rgba(0,0,0,0.2); stroke-width: 2.000000; stroke-linejoin: round; stroke-linecap: round; " d="M 454.000000 367.730652 L 484.000000 315.769104" />
<path style="fill: none; stroke: rgba(0,0,0,0.2); stroke-width: 2.000000; stroke-linejoin: round; stroke-linecap: round; " d="M 394.000000 263.807587 L 514.000000 263.807587" />
<path style="fill: none; stroke: rgba(0,0,0,0.2); stroke-width: 2.000000; stroke-linejoin: round; stroke-linecap: round; " d="M 484.000000 315.769104 L 454.000000 298.448608" />
<path style="fill: none; stroke: rgba(0,0,0,0.2); stroke-width: 2.000000; stroke-linejoin: round; stroke-linecap: round; " d="M 424.000000 315.769104 L 454.000000 298.448608" />
<path style="fill: none; stroke: rgba(0,0,0,0.2); stroke-width: 2.000000; stroke-linejoin: round; stroke-linecap: round; " d="M 454.000000 229.166595 L 454.000000 298.448608" />
<text style="fill: black; font-family: Sans; font-size: 10px; text-anchor: middle; text-align: center; " x="484" y="353.41">0.0.2</text>
<text style="fill: black; font-family: Sans; font-size: 10px; text-anchor: middle; text-align: center; " x="454" y="336.09">1.0.2</text>
<text style="fill: black; font-family: Sans; font-size: 10px; text-anchor: middle; text-align: center; " x="484" y="284.128">2.0.2</text>
<text style="fill: black; font-family: Sans; font-size: 10px; text-anchor: middle; text-align: center; " x="484" y="249.487">3.0.2</text>
<text style="fill: black; font-family: Sans; font-size: 10px; text-anchor: middle; text-align: center; " x="424" y="249.487">4.0.2</text>
<text style="fill: black; font-family: Sans; font-size: 10px; text-anchor: middle; text-align: center; " x="424" y="284.128">5.0.2</text>
<text style="fill: black; font-family: Sans; font-size: 10px; text-anchor: middle; text-align: center; " x="394" y="301.449">6.0.2</text>
<text style="fill: black; font-family: Sans; font-size: 10px; text-anchor: middle; text-align: center; " x="364" y="284.128">7.0.2</text>
<path style="fill: none; stroke: black; stroke-width: 4.000000; stroke-linejoin: round; stroke-linecap: round; " d="M 334.000000 159.884552
L 304.000000 107.922974
L 274.000000 125.243530
L 274.000000 159.884552
L 274.000000 194.525543
L 304.000000 211.846069
L 274.000000 263.807587
L 304.000000 315.769104
L 334.000000 298.448578
L 334.000000 263.807587
L 394.000000 263.807587
L 424.000000 211.846069
L 394.000000 194.525543
L 394.000000 159.884552
z" />
<path style="fill: none; stroke: rgba(0,0,0,0.2); stroke-width: 2.000000; stroke-linejoin: round; stroke-linecap: round; " d="M 334.000000 159.884552 L 274.000000 159.884552" />
<path style="fill: none; stroke: rgba(0,0,0,0.2); stroke-width: 2.000000; stroke-linejoin: round; stroke-linecap: round; " d="M 334.000000 159.884552 L 304.000000 211.846069" />
<path style="fill: none; stroke: rgba(0,0,0,0.2); stroke-width: 2.000000; stroke-linejoin: round; stroke-linecap: round; " d="M 274.000000 263.807587 L 334.000000 263.807587" />
<path style="fill: none; stroke: rgba(0,0,0,0.2); stroke-width: 2.000000; stroke-linejoin: round; stroke-linecap: round; " d="M 334.000000 159.884552 L 394.000000 263.807587" />
<path style="fill: none; stroke: rgba(0,0,0,0.2); stroke-width: 2.000000; stroke-linejoin: round; stroke-linecap: round; " d="M 334.000000 263.807587 L 334.000000 229.166565" />
<path style="fill: none; stroke: rgba(0,0,0,0.2); stroke-width: 2.000000; stroke-linejoin: round; stroke-linecap: round; " d="M 304.000000 211.846069 L 334.000000 229.166565" />
<path style="fill: none; stroke: rgba(0,0,0,0.2); stroke-width: 2.000000; stroke-linejoin: round; stroke-linecap: round; " d="M 394.000000 194.525543 L 334.000000 229.166565" />
<text style="fill: black; font-family: Sans; font-size: 10px; text-anchor: middle; text-align: center; " x="304" y="284.128">0.1.2</text>
<text style="fill: black; font-family: Sans; font-size: 10px; text-anchor: middle; text-align: center; " x="304" y="249.487">1.1.2</text>
<text style="fill: black; font-family: Sans; font-size: 10px; text-anchor: middle; text-align: center; " x="364" y="249.487">2.1.2</text>
<text style="fill: black; font-family: Sans; font-size: 10px; text-anchor: middle; text-align: center; " x="394" y="232.167">3.1.2</text>
<text style="fill: black; font-family: Sans; font-size: 10px; text-anchor: middle; text-align: center; " x="364" y="180.205">4.1.2</text>
<text style="fill: black; font-family: Sans; font-size: 10px; text-anchor: middle; text-align: center; " x="334" y="197.526">5.1.2</text>
<text style="fill: black; font-family: Sans; font-size: 10px; text-anchor: middle; text-align: center; " x="304" y="180.205">6.1.2</text>
<text style="fill: black; font-family: Sans; font-size: 10px; text-anchor: middle; text-align: center; " x="304" y="145.564">7.1.2</text>
<path style="fill: none; stroke: black; stroke-width: 4.000000; stroke-linejoin: round; stroke-linecap: round; " d="M 454.000000 575.576721
L 424.000000 627.538269
L 454.000000 644.858765
L 484.000000 627.538269
L 514.000000 610.217773
L 514.000000 575.576721
L 574.000000 575.576721
L 604.000000 523.615234
L 574.000000 506.294708
L 544.000000 523.615234
L 514.000000 471.653687
L 454.000000 471.653687
L 454.000000 506.294708
L 424.000000 523.615234
z" />
<path style="fill: none; stroke: rgba(0,0,0,0.2); stroke-width: 2.000000; stroke-linejoin: round; stroke-linecap: round; " d="M 454.000000 575.576721 L 484.000000 627.538269" />
<path style="fill: none; stroke: rgba(0,0,0,0.2); stroke-width: 2.000000; stroke-linejoin: round; stroke-linecap: round; " d="M 454.000000 575.576721 L 514.000000 575.576721" />
<path style="fill: none; stroke: rgba(0,0,0,0.2); stroke-width: 2.000000; stroke-linejoin: round; stroke-linecap: round; " d="M 574.000000 575.576721 L 544.000000 523.615234" />
<path style="fill: none; stroke: rgba(0,0,0,0.2); stroke-width: 2.000000; stroke-linejoin: round; stroke-linecap: round; " d="M 454.000000 575.576721 L 514.000000 471.653687" />
<path style="fill: none; stroke: rgba(0,0,0,0.2); stroke-width: 2.000000; stroke-linejoin: round; stroke-linecap: round; " d="M 544.000000 523.615234 L 514.000000 540.935730" />
<path style="fill: none; stroke: rgba(0,0,0,0.2); stroke-width: 2.000000; stroke-linejoin: round; stroke-linecap: round; " d="M 514.000000 575.576721 L 514.000000 540.935730" />
<path style="fill: none; stroke: rgba(0,0,0,0.2); stroke-width: 2.000000; stroke-linejoin: round; stroke-linecap: round; " d="M 454.000000 506.294708 L 514.000000 540.935730" />
<text style="fill: black; font-family: Sans; font-size: 10px; text-anchor: middle; text-align: center; " x="574" y="543.936">0.0.3</text>
<text style="fill: black; font-family: Sans; font-size: 10px; text-anchor: middle; text-align: center; " x="544" y="561.256">1.0.3</text>
<text style="fill: black; font-family: Sans; font-size: 10px; text-anchor: middle; text-align: center; " x="514" y="509.295">2.0.3</text>
<text style="fill: black; font-family: Sans; font-size: 10px; text-anchor: middle; text-align: center; " x="484" y="491.974">3.0.3</text>
<text style="fill: black; font-family: Sans; font-size: 10px; text-anchor: middle; text-align: center; " x="454" y="543.936">4.0.3</text>
<text style="fill: black; font-family: Sans; font-size: 10px; text-anchor: middle; text-align: center; " x="484" y="561.256">5.0.3</text>
<text style="fill: black; font-family: Sans; font-size: 10px; text-anchor: middle; text-align: center; " x="484" y="595.897">6.0.3</text>
<text style="fill: black; font-family: Sans; font-size: 10px; text-anchor: middle; text-align: center; " x="454" y="613.218">7.0.3</text>
<path style="fill: none; stroke: black; stroke-width: 4.000000; stroke-linejoin: round; stroke-linecap: round; " d="M 334.000000 575.576721
L 274.000000 575.576721
L 274.000000 610.217773
L 304.000000 627.538269
L 334.000000 644.858765
L 364.000000 627.538269
L 394.000000 679.499756
L 454.000000 679.499756
L 454.000000 644.858765
L 424.000000 627.538269
L 454.000000 575.576721
L 424.000000 523.615234
L 394.000000 540.935730
L 364.000000 523.615234
z" />
<path style="fill: none; stroke: rgba(0,0,0,0.2); stroke-width: 2.000000; stroke-linejoin: round; stroke-linecap: round; " d="M 334.000000 575.576721 L 304.000000 627.538269" />
<path style="fill: none; stroke: rgba(0,0,0,0.2); stroke-width: 2.000000; stroke-linejoin: round; stroke-linecap: round; " d="M 334.000000 575.576721 L 364.000000 627.538269" />
<path style="fill: none; stroke: rgba(0,0,0,0.2); stroke-width: 2.000000; stroke-linejoin: round; stroke-linecap: round; " d="M 394.000000 679.499756 L 424.000000 627.538269" />
<path style="fill: none; stroke: rgba(0,0,0,0.2); stroke-width: 2.000000; stroke-linejoin: round; stroke-linecap: round; " d="M 334.000000 575.576721 L 454.000000 575.576721" />
<path style="fill: none; stroke: rgba(0,0,0,0.2); stroke-width: 2.000000; stroke-linejoin: round; stroke-linecap: round; " d="M 424.000000 627.538269 L 394.000000 610.217773" />
<path style="fill: none; stroke: rgba(0,0,0,0.2); stroke-width: 2.000000; stroke-linejoin: round; stroke-linecap: round; " d="M 364.000000 627.538269 L 394.000000 610.217773" />
<path style="fill: none; stroke: rgba(0,0,0,0.2); stroke-width: 2.000000; stroke-linejoin: round; stroke-linecap: round; " d="M 394.000000 540.935730 L 394.000000 610.217773" />
<text style="fill: black; font-family: Sans; font-size: 10px; text-anchor: middle; text-align: center; " x="424" y="665.179">0.1.3</text>
<text style="fill: black; font-family: Sans; font-size: 10px; text-anchor: middle; text-align: center; " x="394" y="647.859">1.1.3</text>
<text style="fill: black; font-family: Sans; font-size: 10px; text-anchor: middle; text-align: center; " x="424" y="595.897">2.1.3</text>
<text style="fill: black; font-family: Sans; font-size: 10px; text-anchor: middle; text-align: center; " x="424" y="561.256">3.1.3</text>
<text style="fill: black; font-family: Sans; font-size: 10px; text-anchor: middle; text-align: center; " x="364" y="561.256">4.1.3</text>
<text style="fill: black; font-family: Sans; font-size: 10px; text-anchor: middle; text-align: center; " x="364" y="595.897">5.1.3</text>
<text style="fill: black; font-family: Sans; font-size: 10px; text-anchor: middle; text-align: center; " x="334" y="613.218">6.1.3</text>
<text style="fill: black; font-family: Sans; font-size: 10px; text-anchor: middle; text-align: center; " x="304" y="595.897">7.1.3</text>
<path style="fill: none; stroke: black; stroke-width: 4.000000; stroke-linejoin: round; stroke-linecap: round; " d="M 214.000000 159.884552
L 244.000000 211.846069
L 274.000000 194.525543
L 274.000000 159.884552
L 274.000000 125.243530
L 244.000000 107.922974
L 274.000000 55.961487
L 244.000000 4.000000
L 214.000000 21.320496
L 214.000000 55.961487
L 154.000000 55.961487
L 124.000000 107.922974
L 154.000000 125.243530
L 154.000000 159.884552
z" />
<path style="fill: none; stroke: rgba(0,0,0,0.2); stroke-width: 2.000000; stroke-linejoin: round; stroke-linecap: round; " d="M 214.000000 159.884552 L 274.000000 159.884552" />
<path style="fill: none; stroke: rgba(0,0,0,0.2); stroke-width: 2.000000; stroke-linejoin: round; stroke-linecap: round; " d="M 214.000000 159.884552 L 244.000000 107.922974" />
<path style="fill: none; stroke: rgba(0,0,0,0.2); stroke-width: 2.000000; stroke-linejoin: round; stroke-linecap: round; " d="M 274.000000 55.961487 L 214.000000 55.961487" />
<path style="fill: none; stroke: rgba(0,0,0,0.2); stroke-width: 2.000000; stroke-linejoin: round; stroke-linecap: round; " d="M 214.000000 159.884552 L 154.000000 55.961487" />
<path style="fill: none; stroke: rgba(0,0,0,0.2); stroke-width: 2.000000; stroke-linejoin: round; stroke-linecap: round; " d="M 214.000000 55.961487 L 214.000000 90.602478" />
<path style="fill: none; stroke: rgba(0,0,0,0.2); stroke-width: 2.000000; stroke-linejoin: round; stroke-linecap: round; " d="M 244.000000 107.922974 L 214.000000 90.602478" />
<path style="fill: none; stroke: rgba(0,0,0,0.2); stroke-width: 2.000000; stroke-linejoin: round; stroke-linecap: round; " d="M 154.000000 125.243530 L 214.000000 90.602478" />
<text style="fill: black; font-family: Sans; font-size: 10px; text-anchor: middle; text-align: center; " x="244" y="41.641">0.0.4</text>
<text style="fill: black; font-family: Sans; font-size: 10px; text-anchor: middle; text-align: center; " x="244" y="76.282">1.0.4</text>
<text style="fill: black; font-family: Sans; font-size: 10px; text-anchor: middle; text-align: center; " x="184" y="76.282">2.0.4</text>
<text style="fill: black; font-family: Sans; font-size: 10px; text-anchor: middle; text-align: center; " x="154" y="93.6025">3.0.4</text>
<text style="fill: black; font-family: Sans; font-size: 10px; text-anchor: middle; text-align: center; " x="184" y="145.564">4.0.4</text>
<text style="fill: black; font-family: Sans; font-size: 10px; text-anchor: middle; text-align: center; " x="214" y="128.244">5.0.4</text>
<text style="fill: black; font-family: Sans; font-size: 10px; text-anchor: middle; text-align: center; " x="244" y="145.564">6.0.4</text>
<text style="fill: black; font-family: Sans; font-size: 10px; text-anchor: middle; text-align: center; " x="244" y="180.205">7.0.4</text>
<path style="fill: none; stroke: black; stroke-width: 4.000000; stroke-linejoin: round; stroke-linecap: round; " d="M 154.000000 263.807587
L 124.000000 315.769104
L 154.000000 333.089630
L 184.000000 315.769104
L 214.000000 298.448578
L 214.000000 263.807587
L 274.000000 263.807587
L 304.000000 211.846069
L 274.000000 194.525543
L 244.000000 211.846069
L 214.000000 159.884552
L 154.000000 159.884552
L 154.000000 194.525543
L 124.000000 211.846069
z" />
<path style="fill: none; stroke: rgba(0,0,0,0.2); stroke-width: 2.000000; stroke-linejoin: round; stroke-linecap: round; " d="M 154.000000 263.807587 L 184.000000 315.769104" />
<path style="fill: none; stroke: rgba(0,0,0,0.2); stroke-width: 2.000000; stroke-linejoin: round; stroke-linecap: round; " d="M 154.000000 263.807587 L 214.000000 263.807587" />
<path style="fill: none; stroke: rgba(0,0,0,0.2); stroke-width: 2.000000; stroke-linejoin: round; stroke-linecap: round; " d="M 274.000000 263.807587 L 244.000000 211.846069" />
<path style="fill: none; stroke: rgba(0,0,0,0.2); stroke-width: 2.000000; stroke-linejoin: round; stroke-linecap: round; " d="M 154.000000 263.807587 L 214.000000 159.884552" />
<path style="fill: none; stroke: rgba(0,0,0,0.2); stroke-width: 2.000000; stroke-linejoin: round; stroke-linecap: round; " d="M 244.000000 211.846069 L 214.000000 229.166565" />
<path style="fill: none; stroke: rgba(0,0,0,0.2); stroke-width: 2.000000; stroke-linejoin: round; stroke-linecap: round; " d="M 214.000000 263.807587 L 214.000000 229.166565" />
<path style="fill: none; stroke: rgba(0,0,0,0.2); stroke-width: 2.000000; stroke-linejoin: round; stroke-linecap: round; " d="M 154.000000 194.525543 L 214.000000 229.166565" />
<text style="fill: black; font-family: Sans; font-size: 10px; text-anchor: middle; text-align: center; " x="274" y="232.167">0.1.4</text>
<text style="fill: black; font-family: Sans; font-size: 10px; text-anchor: middle; text-align: center; " x="244" y="249.487">1.1.4</text>
<text style="fill: black; font-family: Sans; font-size: 10px; text-anchor: middle; text-align: center; " x="214" y="197.526">2.1.4</text>
<text style="fill: black; font-family: Sans; font-size: 10px; text-anchor: middle; text-align: center; " x="184" y="180.205">3.1.4</text>
<text style="fill: black; font-family: Sans; font-size: 10px; text-anchor: middle; text-align: center; " x="154" y="232.167">4.1.4</text>
<text style="fill: black; font-family: Sans; font-size: 10px; text-anchor: middle; text-align: center; " x="184" y="249.487">5.1.4</text>
<text style="fill: black; font-family: Sans; font-size: 10px; text-anchor: middle; text-align: center; " x="184" y="284.128">6.1.4</text>
<text style="fill: black; font-family: Sans; font-size: 10px; text-anchor: middle; text-align: center; " x="154" y="301.449">7.1.4</text>
<path style="fill: none; stroke: black; stroke-width: 4.000000; stroke-linejoin: round; stroke-linecap: round; " d="M 154.000000 679.499756
L 184.000000 627.538269
L 154.000000 610.217773
L 124.000000 627.538269
L 94.000000 644.858765
L 94.000000 679.499756
L 34.000000 679.499756
L 4.000000 731.461304
L 34.000000 748.781799
L 64.000000 731.461304
L 94.000000 783.422852
L 154.000000 783.422852
L 154.000000 748.781799
L 184.000000 731.461304
z" />
<path style="fill: none; stroke: rgba(0,0,0,0.2); stroke-width: 2.000000; stroke-linejoin: round; stroke-linecap: round; " d="M 154.000000 679.499756 L 124.000000 627.538269" />
<path style="fill: none; stroke: rgba(0,0,0,0.2); stroke-width: 2.000000; stroke-linejoin: round; stroke-linecap: round; " d="M 154.000000 679.499756 L 94.000000 679.499756" />
<path style="fill: none; stroke: rgba(0,0,0,0.2); stroke-width: 2.000000; stroke-linejoin: round; stroke-linecap: round; " d="M 34.000000 679.499756 L 64.000000 731.461304" />
<path style="fill: none; stroke: rgba(0,0,0,0.2); stroke-width: 2.000000; stroke-linejoin: round; stroke-linecap: round; " d="M 154.000000 679.499756 L 94.000000 783.422852" />
<path style="fill: none; stroke: rgba(0,0,0,0.2); stroke-width: 2.000000; stroke-linejoin: round; stroke-linecap: round; " d="M 64.000000 731.461304 L 94.000000 714.140808" />
<path style="fill: none; stroke: rgba(0,0,0,0.2); stroke-width: 2.000000; stroke-linejoin: round; stroke-linecap: round; " d="M 94.000000 679.499756 L 94.000000 714.140808" />
<path style="fill: none; stroke: rgba(0,0,0,0.2); stroke-width: 2.000000; stroke-linejoin: round; stroke-linecap: round; " d="M 154.000000 748.781799 L 94.000000 714.140808" />
<text style="fill: black; font-family: Sans; font-size: 10px; text-anchor: middle; text-align: center; " x="34" y="717.141">0.0.5</text>
<text style="fill: black; font-family: Sans; font-size: 10px; text-anchor: middle; text-align: center; " x="64" y="699.82">1.0.5</text>
<text style="fill: black; font-family: Sans; font-size: 10px; text-anchor: middle; text-align: center; " x="94" y="751.782">2.0.5</text>
<text style="fill: black; font-family: Sans; font-size: 10px; text-anchor: middle; text-align: center; " x="124" y="769.102">3.0.5</text>
<text style="fill: black; font-family: Sans; font-size: 10px; text-anchor: middle; text-align: center; " x="154" y="717.141">4.0.5</text>
<text style="fill: black; font-family: Sans; font-size: 10px; text-anchor: middle; text-align: center; " x="124" y="699.82">5.0.5</text>
<text style="fill: black; font-family: Sans; font-size: 10px; text-anchor: middle; text-align: center; " x="124" y="665.179">6.0.5</text>
<text style="fill: black; font-family: Sans; font-size: 10px; text-anchor: middle; text-align: center; " x="154" y="647.859">7.0.5</text>
<path style="fill: none; stroke: black; stroke-width: 4.000000; stroke-linejoin: round; stroke-linecap: round; " d="M 274.000000 679.499756
L 334.000000 679.499756
L 334.000000 644.858765
L 304.000000 627.538269
L 274.000000 610.217773
L 244.000000 627.538269
L 214.000000 575.576721
L 154.000000 575.576721
L 154.000000 610.217773
L 184.000000 627.538269
L 154.000000 679.499756
L 184.000000 731.461304
L 214.000000 714.140808
L 244.000000 731.461304
z" />
<path style="fill: none; stroke: rgba(0,0,0,0.2); stroke-width: 2.000000; stroke-linejoin: round; stroke-linecap: round; " d="M 274.000000 679.499756 L 304.000000 627.538269" />
<path style="fill: none; stroke: rgba(0,0,0,0.2); stroke-width: 2.000000; stroke-linejoin: round; stroke-linecap: round; " d="M 274.000000 679.499756 L 244.000000 627.538269" />
<path style="fill: none; stroke: rgba(0,0,0,0.2); stroke-width: 2.000000; stroke-linejoin: round; stroke-linecap: round; " d="M 214.000000 575.576721 L 184.000000 627.538269" />
<path style="fill: none; stroke: rgba(0,0,0,0.2); stroke-width: 2.000000; stroke-linejoin: round; stroke-linecap: round; " d="M 274.000000 679.499756 L 154.000000 679.499756" />
<path style="fill: none; stroke: rgba(0,0,0,0.2); stroke-width: 2.000000; stroke-linejoin: round; stroke-linecap: round; " d="M 184.000000 627.538269 L 214.000000 644.858765" />
<path style="fill: none; stroke: rgba(0,0,0,0.2); stroke-width: 2.000000; stroke-linejoin: round; stroke-linecap: round; " d="M 244.000000 627.538269 L 214.000000 644.858765" />
<path style="fill: none; stroke: rgba(0,0,0,0.2); stroke-width: 2.000000; stroke-linejoin: round; stroke-linecap: round; " d="M 214.000000 714.140808 L 214.000000 644.858765" />
<text style="fill: black; font-family: Sans; font-size: 10px; text-anchor: middle; text-align: center; " x="184" y="595.897">0.1.5</text>
<text style="fill: black; font-family: Sans; font-size: 10px; text-anchor: middle; text-align: center; " x="214" y="613.218">1.1.5</text>
<text style="fill: black; font-family: Sans; font-size: 10px; text-anchor: middle; text-align: center; " x="184" y="665.179">2.1.5</text>
<text style="fill: black; font-family: Sans; font-size: 10px; text-anchor: middle; text-align: center; " x="184" y="699.82">3.1.5</text>
<text style="fill: black; font-family: Sans; font-size: 10px; text-anchor: middle; text-align: center; " x="244" y="699.82">4.1.5</text>
<text style="fill: black; font-family: Sans; font-size: 10px; text-anchor: middle; text-align: center; " x="244" y="665.179">5.1.5</text>
<text style="fill: black; font-family: Sans; font-size: 10px; text-anchor: middle; text-align: center; " x="274" y="647.859">6.1.5</text>
<text style="fill: black; font-family: Sans; font-size: 10px; text-anchor: middle; text-align: center; " x="304" y="665.179">7.1.5</text>
<path style="fill: none; stroke: black; stroke-width: 4.000000; stroke-linejoin: round; stroke-linecap: round; " d="M 634.000000 471.653687
L 574.000000 471.653687
L 574.000000 506.294708
L 604.000000 523.615234
L 634.000000 540.935730
L 664.000000 523.615234
L 694.000000 575.576721
L 754.000000 575.576721
L 754.000000 540.935730
L 724.000000 523.615234
L 754.000000 471.653687
L 724.000000 419.692139
L 694.000000 437.012695
L 664.000000 419.692139
z" />
<path style="fill: none; stroke: rgba(0,0,0,0.2); stroke-width: 2.000000; stroke-linejoin: round; stroke-linecap: round; " d="M 634.000000 471.653687 L 604.000000 523.615234" />
<path style="fill: none; stroke: rgba(0,0,0,0.2); stroke-width: 2.000000; stroke-linejoin: round; stroke-linecap: round; " d="M 634.000000 471.653687 L 664.000000 523.615234" />
<path style="fill: none; stroke: rgba(0,0,0,0.2); stroke-width: 2.000000; stroke-linejoin: round; stroke-linecap: round; " d="M 694.000000 575.576721 L 724.000000 523.615234" />
<path style="fill: none; stroke: rgba(0,0,0,0.2); stroke-width: 2.000000; stroke-linejoin: round; stroke-linecap: round; " d="M 634.000000 471.653687 L 754.000000 471.653687" />
<path style="fill: none; stroke: rgba(0,0,0,0.2); stroke-width: 2.000000; stroke-linejoin: round; stroke-linecap: round; " d="M 724.000000 523.615234 L 694.000000 506.294708" />
<path style="fill: none; stroke: rgba(0,0,0,0.2); stroke-width: 2.000000; stroke-linejoin: round; stroke-linecap: round; " d="M 664.000000 523.615234 L 694.000000 506.294708" />
<path style="fill: none; stroke: rgba(0,0,0,0.2); stroke-width: 2.000000; stroke-linejoin: round; stroke-linecap: round; " d="M 694.000000 437.012695 L 694.000000 506.294708" />
<text style="fill: black; font-family: Sans; font-size: 10px; text-anchor: middle; text-align: center; " x="724" y="561.256">0.0.6</text>
<text style="fill: black; font-family: Sans; font-size: 10px; text-anchor: middle; text-align: center; " x="694" y="543.936">1.0.6</text>
<text style="fill: black; font-family: Sans; font-size: 10px; text-anchor: middle; text-align: center; " x="724" y="491.974">2.0.6</text>
<text style="fill: black; font-family: Sans; font-size: 10px; text-anchor: middle; text-align: center; " x="724" y="457.333">3.0.6</text>
<text style="fill: black; font-family: Sans; font-size: 10px; text-anchor: middle; text-align: center; " x="664" y="457.333">4.0.6</text>
<text style="fill: black; font-family: Sans; font-size: 10px; text-anchor: middle; text-align: center; " x="664" y="491.974">5.0.6</text>
<text style="fill: black; font-family: Sans; font-size: 10px; text-anchor: middle; text-align: center; " x="634" y="509.295">6.0.6</text>
<text style="fill: black; font-family: Sans; font-size: 10px; text-anchor: middle; text-align: center; " x="604" y="491.974">7.0.6</text>
<path style="fill: none; stroke: black; stroke-width: 4.000000; stroke-linejoin: round; stroke-linecap: round; " d="M 574.000000 367.730652
L 544.000000 315.769104
L 514.000000 333.089630
L 514.000000 367.730652
L 514.000000 402.371643
L 544.000000 419.692139
L 514.000000 471.653687
L 544.000000 523.615234
L 574.000000 506.294708
L 574.000000 471.653687
L 634.000000 471.653687
L 664.000000 419.692139
L 634.000000 402.371643
L 634.000000 367.730652
z" />
<path style="fill: none; stroke: rgba(0,0,0,0.2); stroke-width: 2.000000; stroke-linejoin: round; stroke-linecap: round; " d="M 574.000000 367.730652 L 514.000000 367.730652" />
<path style="fill: none; stroke: rgba(0,0,0,0.2); stroke-width: 2.000000; stroke-linejoin: round; stroke-linecap: round; " d="M 574.000000 367.730652 L 544.000000 419.692139" />
<path style="fill: none; stroke: rgba(0,0,0,0.2); stroke-width: 2.000000; stroke-linejoin: round; stroke-linecap: round; " d="M 514.000000 471.653687 L 574.000000 471.653687" />
<path style="fill: none; stroke: rgba(0,0,0,0.2); stroke-width: 2.000000; stroke-linejoin: round; stroke-linecap: round; " d="M 574.000000 367.730652 L 634.000000 471.653687" />
<path style="fill: none; stroke: rgba(0,0,0,0.2); stroke-width: 2.000000; stroke-linejoin: round; stroke-linecap: round; " d="M 574.000000 471.653687 L 574.000000 437.012665" />
<path style="fill: none; stroke: rgba(0,0,0,0.2); stroke-width: 2.000000; stroke-linejoin: round; stroke-linecap: round; " d="M 544.000000 419.692139 L 574.000000 437.012665" />
<path style="fill: none; stroke: rgba(0,0,0,0.2); stroke-width: 2.000000; stroke-linejoin: round; stroke-linecap: round; " d="M 634.000000 402.371643 L 574.000000 437.012665" />
<text style="fill: black; font-family: Sans; font-size: 10px; text-anchor: middle; text-align: center; " x="544" y="491.974">0.1.6</text>
<text style="fill: black; font-family: Sans; font-size: 10px; text-anchor: middle; text-align: center; " x="544" y="457.333">1.1.6</text>
<text style="fill: black; font-family: Sans; font-size: 10px; text-anchor: middle; text-align: center; " x="604" y="457.333">2.1.6</text>
<text style="fill: black; font-family: Sans; font-size: 10px; text-anchor: middle; text-align: center; " x="634" y="440.013">3.1.6</text>
<text style="fill: black; font-family: Sans; font-size: 10px; text-anchor: middle; text-align: center; " x="604" y="388.051">4.1.6</text>
<text style="fill: black; font-family: Sans; font-size: 10px; text-anchor: middle; text-align: center; " x="574" y="405.372">5.1.6</text>
<text style="fill: black; font-family: Sans; font-size: 10px; text-anchor: middle; text-align: center; " x="544" y="388.051">6.1.6</text>
<text style="fill: black; font-family: Sans; font-size: 10px; text-anchor: middle; text-align: center; " x="544" y="353.41">7.1.6</text>
</svg>
